G04 EAGLE Gerber RS-274X export*
G75*
%MOMM*%
%FSLAX34Y34*%
%LPD*%
%INBottom Copper*%
%IPPOS*%
%AMOC8*
5,1,8,0,0,1.08239X$1,22.5*%
G01*
G04 Define Apertures*
%ADD10C,0.255000*%
%ADD11P,2.33688X8X112.5*%
%ADD12C,1.524000*%
%ADD13C,0.604800*%
%ADD14C,0.406400*%
%ADD15C,0.254000*%
%ADD16C,0.203200*%
G36*
X332225Y-265899D02*
X331730Y-266000D01*
X-394730Y-266000D01*
X-395188Y-265915D01*
X-395614Y-265642D01*
X-395899Y-265225D01*
X-396000Y-264730D01*
X-396000Y264730D01*
X-395915Y265188D01*
X-395642Y265614D01*
X-395225Y265899D01*
X-394730Y266000D01*
X331730Y266000D01*
X332188Y265915D01*
X332614Y265642D01*
X332899Y265225D01*
X333000Y264730D01*
X333000Y-264730D01*
X332915Y-265188D01*
X332642Y-265614D01*
X332225Y-265899D01*
G37*
%LPC*%
G36*
X-363580Y172000D02*
X-356420Y172000D01*
X-349804Y174740D01*
X-344740Y179804D01*
X-342000Y186420D01*
X-342000Y193580D01*
X-344740Y200196D01*
X-349804Y205260D01*
X-356420Y208000D01*
X-363580Y208000D01*
X-370196Y205260D01*
X-375260Y200196D01*
X-378000Y193580D01*
X-378000Y186420D01*
X-375260Y179804D01*
X-370196Y174740D01*
X-363580Y172000D01*
G37*
G36*
X291116Y97452D02*
X294884Y97452D01*
X297548Y100116D01*
X297548Y103884D01*
X294884Y106548D01*
X292929Y106548D01*
X292453Y106641D01*
X292031Y106920D01*
X239157Y159794D01*
X214164Y159794D01*
X213687Y159887D01*
X213266Y160166D01*
X211884Y161548D01*
X208116Y161548D01*
X205452Y158884D01*
X205452Y155116D01*
X208116Y152452D01*
X211884Y152452D01*
X213266Y153834D01*
X213669Y154105D01*
X214164Y154206D01*
X236317Y154206D01*
X236793Y154113D01*
X237215Y153834D01*
X288080Y102969D01*
X288351Y102566D01*
X288452Y102071D01*
X288452Y100116D01*
X291116Y97452D01*
G37*
G36*
X158116Y63452D02*
X161884Y63452D01*
X164548Y66116D01*
X164548Y69884D01*
X163166Y71266D01*
X162895Y71669D01*
X162794Y72164D01*
X162794Y138157D01*
X144920Y156031D01*
X144649Y156434D01*
X144548Y156929D01*
X144548Y158884D01*
X141884Y161548D01*
X138116Y161548D01*
X135452Y158884D01*
X135452Y155116D01*
X138116Y152452D01*
X140071Y152452D01*
X140547Y152359D01*
X140969Y152080D01*
X156834Y136215D01*
X157105Y135812D01*
X157206Y135317D01*
X157206Y72164D01*
X157113Y71687D01*
X156834Y71266D01*
X155452Y69884D01*
X155452Y66116D01*
X158116Y63452D01*
G37*
G36*
X291616Y-107548D02*
X295384Y-107548D01*
X298048Y-104884D01*
X298048Y-101116D01*
X296166Y-99234D01*
X295895Y-98831D01*
X295794Y-98336D01*
X295794Y-91811D01*
X295872Y-91373D01*
X296138Y-90942D01*
X296550Y-90650D01*
X297044Y-90542D01*
X297541Y-90634D01*
X297962Y-90913D01*
X302834Y-95785D01*
X303105Y-96188D01*
X303206Y-96683D01*
X303206Y-99036D01*
X303113Y-99513D01*
X302834Y-99934D01*
X301652Y-101116D01*
X301652Y-104884D01*
X304316Y-107548D01*
X308084Y-107548D01*
X310748Y-104884D01*
X310748Y-101116D01*
X309166Y-99534D01*
X308895Y-99131D01*
X308794Y-98636D01*
X308794Y-93843D01*
X153557Y61394D01*
X94411Y61394D01*
X93973Y61472D01*
X93542Y61738D01*
X93250Y62150D01*
X93142Y62644D01*
X93234Y63141D01*
X93513Y63562D01*
X99031Y69080D01*
X99434Y69351D01*
X99929Y69452D01*
X101884Y69452D01*
X104548Y72116D01*
X104548Y75884D01*
X101884Y78548D01*
X98116Y78548D01*
X95452Y75884D01*
X95452Y73929D01*
X95359Y73453D01*
X95080Y73031D01*
X91815Y69766D01*
X91412Y69495D01*
X90917Y69394D01*
X88411Y69394D01*
X87973Y69472D01*
X87542Y69738D01*
X87250Y70150D01*
X87142Y70644D01*
X87234Y71141D01*
X87513Y71562D01*
X118785Y102834D01*
X119188Y103105D01*
X119683Y103206D01*
X135836Y103206D01*
X136313Y103113D01*
X136734Y102834D01*
X138116Y101452D01*
X141884Y101452D01*
X144548Y104116D01*
X144548Y107884D01*
X141884Y110548D01*
X138116Y110548D01*
X136734Y109166D01*
X136331Y108895D01*
X135836Y108794D01*
X116843Y108794D01*
X85815Y77766D01*
X85412Y77495D01*
X84917Y77394D01*
X-110160Y77394D01*
X-110636Y77487D01*
X-111058Y77766D01*
X-111916Y78624D01*
X-141684Y78624D01*
X-143324Y76984D01*
X-143324Y72216D01*
X-142606Y71498D01*
X-142343Y71114D01*
X-142235Y70620D01*
X-142327Y70123D01*
X-142606Y69702D01*
X-143324Y68984D01*
X-143324Y64216D01*
X-142606Y63498D01*
X-142343Y63114D01*
X-142235Y62620D01*
X-142327Y62123D01*
X-142606Y61702D01*
X-143324Y60984D01*
X-143324Y56216D01*
X-142606Y55498D01*
X-142343Y55114D01*
X-142235Y54620D01*
X-142327Y54123D01*
X-142606Y53702D01*
X-143324Y52984D01*
X-143324Y48216D01*
X-142606Y47498D01*
X-142343Y47114D01*
X-142235Y46620D01*
X-142327Y46123D01*
X-142606Y45702D01*
X-143324Y44984D01*
X-143324Y40216D01*
X-142606Y39498D01*
X-142343Y39114D01*
X-142235Y38620D01*
X-142327Y38123D01*
X-142606Y37702D01*
X-143324Y36984D01*
X-143324Y32216D01*
X-142606Y31498D01*
X-142343Y31114D01*
X-142235Y30620D01*
X-142327Y30123D01*
X-142606Y29702D01*
X-143324Y28984D01*
X-143324Y24216D01*
X-142606Y23498D01*
X-142343Y23114D01*
X-142235Y22620D01*
X-142327Y22123D01*
X-142606Y21702D01*
X-143324Y20984D01*
X-143324Y16216D01*
X-142606Y15498D01*
X-142343Y15114D01*
X-142235Y14620D01*
X-142327Y14123D01*
X-142606Y13702D01*
X-143324Y12984D01*
X-143324Y8216D01*
X-142606Y7498D01*
X-142343Y7114D01*
X-142235Y6620D01*
X-142327Y6123D01*
X-142606Y5702D01*
X-143324Y4984D01*
X-143324Y215D01*
X-143062Y-168D01*
X-142953Y-661D01*
X-143046Y-1158D01*
X-143325Y-1580D01*
X-144340Y-2595D01*
X-144340Y-3368D01*
X-109260Y-3368D01*
X-109260Y-2226D01*
X-109175Y-1768D01*
X-108902Y-1342D01*
X-108485Y-1057D01*
X-107990Y-956D01*
X-105002Y-956D01*
X-104525Y-1049D01*
X-104104Y-1328D01*
X-103884Y-1548D01*
X-100116Y-1548D01*
X-97452Y1116D01*
X-97452Y4884D01*
X-98072Y5504D01*
X-98343Y5907D01*
X-98444Y6402D01*
X-98444Y10473D01*
X-102127Y14156D01*
X-103749Y14156D01*
X-104188Y14234D01*
X-104618Y14500D01*
X-104910Y14912D01*
X-105019Y15406D01*
X-104926Y15903D01*
X-104647Y16324D01*
X-100444Y20527D01*
X-100444Y26598D01*
X-100351Y27075D01*
X-100072Y27496D01*
X-99452Y28116D01*
X-99452Y31884D01*
X-100072Y32504D01*
X-100343Y32907D01*
X-100444Y33402D01*
X-100444Y42473D01*
X-103609Y45638D01*
X-103864Y46004D01*
X-103980Y46496D01*
X-103896Y46994D01*
X-103623Y47420D01*
X-103206Y47705D01*
X-102711Y47806D01*
X148717Y47806D01*
X149193Y47713D01*
X149615Y47434D01*
X289834Y-92785D01*
X290105Y-93188D01*
X290206Y-93683D01*
X290206Y-99336D01*
X290113Y-99813D01*
X289834Y-100234D01*
X288952Y-101116D01*
X288952Y-104884D01*
X291616Y-107548D01*
G37*
G36*
X-383335Y32032D02*
X-372032Y32032D01*
X-372032Y43335D01*
X-375524Y43335D01*
X-383335Y35524D01*
X-383335Y32032D01*
G37*
G36*
X-367968Y32032D02*
X-356665Y32032D01*
X-356665Y35524D01*
X-364477Y43335D01*
X-367968Y43335D01*
X-367968Y32032D01*
G37*
G36*
X-367968Y16665D02*
X-364477Y16665D01*
X-356665Y24477D01*
X-356665Y27968D01*
X-367968Y27968D01*
X-367968Y16665D01*
G37*
G36*
X-375524Y16665D02*
X-372032Y16665D01*
X-372032Y27968D01*
X-383335Y27968D01*
X-383335Y24477D01*
X-375524Y16665D01*
G37*
G36*
X-21884Y15452D02*
X-18116Y15452D01*
X-16734Y16834D01*
X-16331Y17105D01*
X-15836Y17206D01*
X75836Y17206D01*
X76313Y17113D01*
X76734Y16834D01*
X78116Y15452D01*
X81884Y15452D01*
X84548Y18116D01*
X84548Y21884D01*
X81884Y24548D01*
X78116Y24548D01*
X76734Y23166D01*
X76331Y22895D01*
X75836Y22794D01*
X-15836Y22794D01*
X-16313Y22887D01*
X-16734Y23166D01*
X-18116Y24548D01*
X-21884Y24548D01*
X-24548Y21884D01*
X-24548Y18116D01*
X-21884Y15452D01*
G37*
G36*
X-144340Y-59368D02*
X-109260Y-59368D01*
X-109260Y-58595D01*
X-109493Y-58362D01*
X-109748Y-57996D01*
X-109864Y-57504D01*
X-109779Y-57006D01*
X-109507Y-56580D01*
X-109090Y-56295D01*
X-108595Y-56194D01*
X93757Y-56194D01*
X113031Y-36920D01*
X113434Y-36649D01*
X113929Y-36548D01*
X115884Y-36548D01*
X118548Y-33884D01*
X118548Y-30116D01*
X115884Y-27452D01*
X112565Y-27452D01*
X112127Y-27374D01*
X111696Y-27108D01*
X111404Y-26696D01*
X111296Y-26202D01*
X111388Y-25705D01*
X111667Y-25284D01*
X113794Y-23157D01*
X113794Y182D01*
X113879Y640D01*
X114152Y1066D01*
X114569Y1351D01*
X115064Y1452D01*
X115884Y1452D01*
X118548Y4116D01*
X118548Y7884D01*
X115884Y10548D01*
X112116Y10548D01*
X109452Y7884D01*
X109452Y5929D01*
X109359Y5453D01*
X109080Y5031D01*
X108206Y4157D01*
X108206Y-13708D01*
X108128Y-14147D01*
X107862Y-14577D01*
X107450Y-14869D01*
X106956Y-14978D01*
X106459Y-14885D01*
X106038Y-14606D01*
X105884Y-14452D01*
X102116Y-14452D01*
X99452Y-17116D01*
X99452Y-19071D01*
X99359Y-19547D01*
X99080Y-19969D01*
X96716Y-22333D01*
X96350Y-22588D01*
X95858Y-22704D01*
X95360Y-22619D01*
X94934Y-22347D01*
X94649Y-21930D01*
X94548Y-21435D01*
X94548Y-19116D01*
X93794Y-18362D01*
X93539Y-17996D01*
X93423Y-17504D01*
X93507Y-17006D01*
X93780Y-16580D01*
X94197Y-16295D01*
X94692Y-16194D01*
X94757Y-16194D01*
X100031Y-10920D01*
X100434Y-10649D01*
X100929Y-10548D01*
X102884Y-10548D01*
X105548Y-7884D01*
X105548Y-4116D01*
X102884Y-1452D01*
X99116Y-1452D01*
X96452Y-4116D01*
X96452Y-6071D01*
X96359Y-6547D01*
X96080Y-6969D01*
X92815Y-10234D01*
X92412Y-10505D01*
X91917Y-10606D01*
X-108595Y-10606D01*
X-109034Y-10528D01*
X-109464Y-10262D01*
X-109756Y-9850D01*
X-109865Y-9356D01*
X-109772Y-8859D01*
X-109493Y-8438D01*
X-109260Y-8205D01*
X-109260Y-7432D01*
X-144340Y-7432D01*
X-144340Y-8205D01*
X-143325Y-9220D01*
X-143062Y-9605D01*
X-142953Y-10098D01*
X-143046Y-10595D01*
X-143324Y-11015D01*
X-143324Y-15784D01*
X-142606Y-16502D01*
X-142343Y-16886D01*
X-142235Y-17380D01*
X-142327Y-17877D01*
X-142606Y-18298D01*
X-143324Y-19016D01*
X-143324Y-23784D01*
X-142606Y-24502D01*
X-142343Y-24886D01*
X-142235Y-25380D01*
X-142327Y-25877D01*
X-142606Y-26298D01*
X-143324Y-27016D01*
X-143324Y-31784D01*
X-142606Y-32502D01*
X-142343Y-32886D01*
X-142235Y-33380D01*
X-142327Y-33877D01*
X-142606Y-34298D01*
X-143324Y-35016D01*
X-143324Y-39784D01*
X-142606Y-40502D01*
X-142343Y-40886D01*
X-142235Y-41380D01*
X-142327Y-41877D01*
X-142606Y-42298D01*
X-143324Y-43016D01*
X-143324Y-47784D01*
X-142606Y-48502D01*
X-142343Y-48886D01*
X-142235Y-49380D01*
X-142327Y-49877D01*
X-142606Y-50298D01*
X-143324Y-51016D01*
X-143324Y-55785D01*
X-143062Y-56168D01*
X-142953Y-56661D01*
X-143046Y-57158D01*
X-143325Y-57580D01*
X-144340Y-58595D01*
X-144340Y-59368D01*
G37*
G36*
X-375103Y-42319D02*
X-364897Y-42319D01*
X-357681Y-35103D01*
X-357681Y-24897D01*
X-364897Y-17681D01*
X-375103Y-17681D01*
X-382319Y-24897D01*
X-382319Y-35103D01*
X-375103Y-42319D01*
G37*
G36*
X107116Y-79548D02*
X110884Y-79548D01*
X113548Y-76884D01*
X113548Y-74570D01*
X113641Y-74094D01*
X113920Y-73672D01*
X117680Y-69912D01*
X118083Y-69641D01*
X118578Y-69540D01*
X160582Y-69540D01*
X161059Y-69633D01*
X161480Y-69912D01*
X163116Y-71548D01*
X166884Y-71548D01*
X169548Y-68884D01*
X169548Y-65116D01*
X166884Y-62452D01*
X163116Y-62452D01*
X161480Y-64088D01*
X161077Y-64359D01*
X160582Y-64460D01*
X115948Y-64460D01*
X110328Y-70080D01*
X109925Y-70351D01*
X109430Y-70452D01*
X107116Y-70452D01*
X104452Y-73116D01*
X104452Y-76884D01*
X107116Y-79548D01*
G37*
G36*
X-124768Y-66440D02*
X-111495Y-66440D01*
X-109260Y-64205D01*
X-109260Y-63432D01*
X-124768Y-63432D01*
X-124768Y-66440D01*
G37*
G36*
X-142105Y-66440D02*
X-128832Y-66440D01*
X-128832Y-63432D01*
X-144340Y-63432D01*
X-144340Y-64205D01*
X-142105Y-66440D01*
G37*
G36*
X-331339Y-103744D02*
X-312461Y-103744D01*
X-309100Y-102352D01*
X-306528Y-99780D01*
X-305136Y-96419D01*
X-305136Y-92781D01*
X-306528Y-89420D01*
X-309100Y-86848D01*
X-312461Y-85456D01*
X-331339Y-85456D01*
X-334700Y-86848D01*
X-337272Y-89420D01*
X-338664Y-92781D01*
X-338664Y-96419D01*
X-337272Y-99780D01*
X-334700Y-102352D01*
X-331339Y-103744D01*
G37*
G36*
X82116Y-190548D02*
X85884Y-190548D01*
X88548Y-187884D01*
X88548Y-184116D01*
X85884Y-181452D01*
X82116Y-181452D01*
X80734Y-182834D01*
X80331Y-183105D01*
X79836Y-183206D01*
X78683Y-183206D01*
X78207Y-183113D01*
X77785Y-182834D01*
X24166Y-129215D01*
X23895Y-128812D01*
X23794Y-128317D01*
X23794Y-112164D01*
X23887Y-111687D01*
X24166Y-111266D01*
X26548Y-108884D01*
X26548Y-105116D01*
X23884Y-102452D01*
X20116Y-102452D01*
X17452Y-105116D01*
X17452Y-108884D01*
X17834Y-109266D01*
X18105Y-109669D01*
X18206Y-110164D01*
X18206Y-131157D01*
X75843Y-188794D01*
X79836Y-188794D01*
X80313Y-188887D01*
X80734Y-189166D01*
X82116Y-190548D01*
G37*
G36*
X-339675Y-117968D02*
X-323932Y-117968D01*
X-323932Y-109840D01*
X-331541Y-109840D01*
X-335275Y-111387D01*
X-338133Y-114245D01*
X-339675Y-117968D01*
G37*
G36*
X-319868Y-117968D02*
X-304125Y-117968D01*
X-305667Y-114245D01*
X-308525Y-111387D01*
X-312259Y-109840D01*
X-319868Y-109840D01*
X-319868Y-117968D01*
G37*
G36*
X-319868Y-130160D02*
X-312259Y-130160D01*
X-308525Y-128613D01*
X-305667Y-125755D01*
X-304125Y-122032D01*
X-319868Y-122032D01*
X-319868Y-130160D01*
G37*
G36*
X-331541Y-130160D02*
X-323932Y-130160D01*
X-323932Y-122032D01*
X-339675Y-122032D01*
X-338133Y-125755D01*
X-335275Y-128613D01*
X-331541Y-130160D01*
G37*
G36*
X-331339Y-154544D02*
X-312461Y-154544D01*
X-309100Y-153152D01*
X-306528Y-150580D01*
X-305136Y-147219D01*
X-305136Y-143581D01*
X-306528Y-140220D01*
X-309100Y-137648D01*
X-312461Y-136256D01*
X-331339Y-136256D01*
X-334700Y-137648D01*
X-337272Y-140220D01*
X-338664Y-143581D01*
X-338664Y-147219D01*
X-337272Y-150580D01*
X-334700Y-153152D01*
X-331339Y-154544D01*
G37*
G36*
X-363580Y-208000D02*
X-356420Y-208000D01*
X-349804Y-205260D01*
X-344740Y-200196D01*
X-342000Y-193580D01*
X-342000Y-186420D01*
X-344740Y-179804D01*
X-349804Y-174740D01*
X-356420Y-172000D01*
X-363580Y-172000D01*
X-370196Y-174740D01*
X-375260Y-179804D01*
X-378000Y-186420D01*
X-378000Y-193580D01*
X-375260Y-200196D01*
X-370196Y-205260D01*
X-363580Y-208000D01*
G37*
%LPD*%
D10*
X-140525Y-60175D02*
X-113075Y-60175D01*
X-113075Y-62625D01*
X-140525Y-62625D01*
X-140525Y-60175D01*
X-140525Y-60203D02*
X-113075Y-60203D01*
X-113075Y-52175D02*
X-140525Y-52175D01*
X-113075Y-52175D02*
X-113075Y-54625D01*
X-140525Y-54625D01*
X-140525Y-52175D01*
X-140525Y-52203D02*
X-113075Y-52203D01*
X-113075Y-44175D02*
X-140525Y-44175D01*
X-113075Y-44175D02*
X-113075Y-46625D01*
X-140525Y-46625D01*
X-140525Y-44175D01*
X-140525Y-44203D02*
X-113075Y-44203D01*
X-113075Y-36175D02*
X-140525Y-36175D01*
X-113075Y-36175D02*
X-113075Y-38625D01*
X-140525Y-38625D01*
X-140525Y-36175D01*
X-140525Y-36203D02*
X-113075Y-36203D01*
X-113075Y-28175D02*
X-140525Y-28175D01*
X-113075Y-28175D02*
X-113075Y-30625D01*
X-140525Y-30625D01*
X-140525Y-28175D01*
X-140525Y-28203D02*
X-113075Y-28203D01*
X-113075Y-20175D02*
X-140525Y-20175D01*
X-113075Y-20175D02*
X-113075Y-22625D01*
X-140525Y-22625D01*
X-140525Y-20175D01*
X-140525Y-20203D02*
X-113075Y-20203D01*
X-113075Y-12175D02*
X-140525Y-12175D01*
X-113075Y-12175D02*
X-113075Y-14625D01*
X-140525Y-14625D01*
X-140525Y-12175D01*
X-140525Y-12203D02*
X-113075Y-12203D01*
X-113075Y-4175D02*
X-140525Y-4175D01*
X-113075Y-4175D02*
X-113075Y-6625D01*
X-140525Y-6625D01*
X-140525Y-4175D01*
X-140525Y-4203D02*
X-113075Y-4203D01*
X-113075Y3825D02*
X-140525Y3825D01*
X-113075Y3825D02*
X-113075Y1375D01*
X-140525Y1375D01*
X-140525Y3825D01*
X-140525Y3797D02*
X-113075Y3797D01*
X-113075Y11825D02*
X-140525Y11825D01*
X-113075Y11825D02*
X-113075Y9375D01*
X-140525Y9375D01*
X-140525Y11825D01*
X-140525Y11797D02*
X-113075Y11797D01*
X-113075Y19825D02*
X-140525Y19825D01*
X-113075Y19825D02*
X-113075Y17375D01*
X-140525Y17375D01*
X-140525Y19825D01*
X-140525Y19797D02*
X-113075Y19797D01*
X-113075Y27825D02*
X-140525Y27825D01*
X-113075Y27825D02*
X-113075Y25375D01*
X-140525Y25375D01*
X-140525Y27825D01*
X-140525Y27797D02*
X-113075Y27797D01*
X-113075Y35825D02*
X-140525Y35825D01*
X-113075Y35825D02*
X-113075Y33375D01*
X-140525Y33375D01*
X-140525Y35825D01*
X-140525Y35797D02*
X-113075Y35797D01*
X-113075Y43825D02*
X-140525Y43825D01*
X-113075Y43825D02*
X-113075Y41375D01*
X-140525Y41375D01*
X-140525Y43825D01*
X-140525Y43797D02*
X-113075Y43797D01*
X-113075Y51825D02*
X-140525Y51825D01*
X-113075Y51825D02*
X-113075Y49375D01*
X-140525Y49375D01*
X-140525Y51825D01*
X-140525Y51797D02*
X-113075Y51797D01*
X-113075Y59825D02*
X-140525Y59825D01*
X-113075Y59825D02*
X-113075Y57375D01*
X-140525Y57375D01*
X-140525Y59825D01*
X-140525Y59797D02*
X-113075Y59797D01*
X-113075Y67825D02*
X-140525Y67825D01*
X-113075Y67825D02*
X-113075Y65375D01*
X-140525Y65375D01*
X-140525Y67825D01*
X-140525Y67797D02*
X-113075Y67797D01*
X-113075Y75825D02*
X-140525Y75825D01*
X-113075Y75825D02*
X-113075Y73375D01*
X-140525Y73375D01*
X-140525Y75825D01*
X-140525Y75797D02*
X-113075Y75797D01*
D11*
X-370000Y-30000D03*
X-370000Y30000D03*
D12*
X-329520Y-94600D02*
X-314280Y-94600D01*
X-314280Y-120000D02*
X-329520Y-120000D01*
X-329520Y-145400D02*
X-314280Y-145400D01*
D13*
X-146000Y-150000D03*
X-131000Y-133000D03*
X-132000Y-167000D03*
X-125000Y-128000D03*
X-142000Y-110000D03*
X-125000Y-91000D03*
X-50000Y-200000D03*
X154000Y-200000D03*
X120000Y-174000D03*
X120000Y-154000D03*
X70000Y-120000D03*
X-7000Y-140000D03*
X-5000Y-181000D03*
X-5000Y-189000D03*
X319000Y-101000D03*
X319000Y101000D03*
X330000Y115000D03*
X330000Y135000D03*
X210000Y222000D03*
X140000Y222000D03*
X-105000Y-62000D03*
X-60000Y3000D03*
X-56000Y40000D03*
X-106000Y-5000D03*
X245000Y135000D03*
X115000Y44000D03*
X310000Y-145000D03*
X290000Y-145000D03*
X330000Y-110000D03*
X330000Y-140000D03*
X330000Y-170000D03*
X330000Y-200000D03*
X330000Y-230000D03*
X330000Y-260000D03*
X330000Y260000D03*
X330000Y230000D03*
X330000Y200000D03*
X330000Y170000D03*
X280000Y250000D03*
X50000Y249000D03*
X-170000Y250000D03*
X-380000Y249000D03*
X-380000Y150000D03*
X-380000Y79000D03*
X-380000Y-10000D03*
X-380000Y-70000D03*
X-380000Y-250000D03*
X-170000Y-250000D03*
X170000Y-250000D03*
X290000Y-250000D03*
X260000Y-170000D03*
X260000Y170000D03*
X130000Y-90000D03*
X130000Y90000D03*
X-140000Y100000D03*
X-233000Y-228000D03*
X-248000Y210000D03*
X-80000Y180000D03*
X50000Y180000D03*
X-70000Y-80000D03*
X70000Y-80000D03*
X80000Y-114000D03*
X80000Y-134000D03*
X100000Y-240564D03*
D14*
X-103600Y10600D02*
X-126800Y10600D01*
X-103600Y10600D02*
X-102000Y9000D01*
X-102000Y3000D01*
D13*
X-102000Y3000D03*
D14*
X-102400Y2600D02*
X-126800Y2600D01*
X-102400Y2600D02*
X-102000Y3000D01*
X-105600Y42600D02*
X-126800Y42600D01*
X-105600Y42600D02*
X-104000Y41000D01*
X-104000Y34000D01*
X-104000Y30000D01*
X-104000Y27000D01*
X-104000Y22000D01*
X-107400Y18600D01*
X-126800Y18600D01*
X-126800Y26600D02*
X-104400Y26600D01*
D15*
X-104000Y27000D01*
D14*
X-104600Y34600D02*
X-126800Y34600D01*
D15*
X-104600Y34600D02*
X-104000Y34000D01*
D13*
X-104000Y30000D03*
D15*
X-126800Y50600D02*
X150400Y50600D01*
X293000Y-92000D01*
X293000Y-103500D01*
X293500Y-103000D01*
D13*
X293500Y-103000D03*
D15*
X152400Y58600D02*
X-126800Y58600D01*
X152400Y58600D02*
X306000Y-95000D01*
X306000Y-102800D01*
X306200Y-103000D01*
D13*
X306200Y-103000D03*
D15*
X92600Y66600D02*
X-126800Y66600D01*
X92600Y66600D02*
X100000Y74000D01*
D13*
X100000Y74000D03*
D15*
X86600Y74600D02*
X-126800Y74600D01*
X86600Y74600D02*
X118000Y106000D01*
X140000Y106000D01*
D13*
X140000Y106000D03*
D15*
X92600Y-53400D02*
X-126800Y-53400D01*
X92600Y-53400D02*
X114000Y-32000D01*
D13*
X114000Y-32000D03*
D15*
X87600Y-45400D02*
X-126800Y-45400D01*
X87600Y-45400D02*
X111000Y-22000D01*
X111000Y3000D01*
X114000Y6000D01*
D13*
X114000Y6000D03*
D15*
X85600Y-37400D02*
X-126800Y-37400D01*
X85600Y-37400D02*
X104000Y-19000D01*
D13*
X104000Y-19000D03*
D15*
X79600Y-29400D02*
X-126800Y-29400D01*
X79600Y-29400D02*
X80000Y-29000D01*
D13*
X80000Y-29000D03*
D15*
X89600Y-21400D02*
X-126800Y-21400D01*
X89600Y-21400D02*
X90000Y-21000D01*
D13*
X90000Y-21000D03*
D15*
X93600Y-13400D02*
X-126800Y-13400D01*
X93600Y-13400D02*
X101000Y-6000D01*
D13*
X101000Y-6000D03*
X80000Y20000D03*
D15*
X-20000Y20000D01*
D13*
X-20000Y20000D03*
X293000Y102000D03*
D15*
X238000Y157000D01*
X210000Y157000D01*
D13*
X210000Y157000D03*
X160000Y68000D03*
D15*
X160000Y137000D01*
X140000Y157000D01*
D13*
X140000Y157000D03*
X84000Y-186000D03*
D15*
X77000Y-186000D01*
X21000Y-130000D01*
X21000Y-108000D01*
X22000Y-107000D01*
D13*
X22000Y-107000D03*
X165000Y-67000D03*
D16*
X117000Y-67000D01*
X109000Y-75000D01*
D13*
X109000Y-75000D03*
M02*
