M48
;GenerationSoftware,Autodesk,EAGLE,9.7.0*%
;CreationDate,2024-10-19T05:47:30Z*%
FMAT,2
ICI,OFF
METRIC,TZ,000.000
T4C0.300
T3C1.016
T2C1.321
T1C2.800
%
G90
M71
T1
X-36000Y19000
X-36000Y-19000
X36000Y19000
X36000Y-19000
T2
X-37000Y-3000
X-37000Y3000
T3
X-32190Y-9460
X-32190Y-12000
X-32190Y-14540
T4
X12000Y-15400
X7000Y-12000
X-700Y-14000
X-500Y-18100
X-500Y-18900
X31900Y-10100
X31900Y10100
X33000Y11500
X33000Y13500
X21000Y22200
X14000Y22200
X-10500Y-6200
X-6000Y300
X-5600Y4000
X-10600Y-500
X24500Y13500
X11500Y4400
X31000Y-14500
X29000Y-14500
X33000Y-11000
X33000Y-14000
X33000Y-17000
X33000Y-20000
X33000Y-23000
X33000Y-26000
X33000Y26000
X33000Y23000
X33000Y20000
X33000Y17000
X28000Y25000
X5000Y24900
X-17000Y25000
X-38000Y24900
X-38000Y15000
X-38000Y7900
X-38000Y-1000
X-38000Y-7000
X-38000Y-25000
X-14600Y-15000
X17000Y-25000
X29000Y-25000
X26000Y-17000
X26000Y17000
X13000Y-9000
X13000Y9000
X-14000Y10000
X-23300Y-22800
X-24800Y21000
X-8000Y18000
X5000Y18000
X-7000Y-8000
X7000Y-8000
X8000Y-11400
X8000Y-13400
X10000Y-24056
X-10200Y300
X-10400Y3000
X29350Y-10300
X30620Y-10300
X10000Y7400
X14000Y10600
X11400Y-3200
X11400Y600
X10400Y-1900
X8000Y-2900
X9000Y-2100
X10100Y-600
X8000Y2000
X-2000Y2000
X29300Y10200
X21000Y15700
X16000Y6800
X14000Y15700
X8400Y-18600
X2200Y-10700
X16500Y-6700
X10900Y-7500
X12000Y-17400
X15400Y-20000
X-5000Y-20000
X-12500Y-9100
X-14200Y-11000
X-12500Y-12800
X-13200Y-16700
X-13100Y-13300
X-17000Y-25000
M30