G04 EAGLE Gerber RS-274X export*
G75*
%MOMM*%
%FSLAX34Y34*%
%LPD*%
%INSilkscreen Bottom*%
%IPPOS*%
%AMOC8*
5,1,8,0,0,1.08239X$1,22.5*%
G01*
G04 Define Apertures*
%ADD10C,0.100000*%
%ADD11C,0.050000*%
%ADD12C,0.127000*%
D10*
X301300Y-213600D02*
X-301300Y-213600D01*
X-301300Y213600D01*
X301300Y213600D01*
X301300Y-213600D01*
D11*
X271000Y183600D02*
X-218600Y183600D01*
X-218600Y-183600D01*
X271000Y-183600D01*
X271000Y183600D01*
D10*
X-110000Y80000D02*
X-144000Y80000D01*
X-144000Y-67000D01*
X-110000Y-67000D01*
X-110000Y80000D01*
D12*
X-100475Y-73896D02*
X-102451Y-76365D01*
X-100475Y-73896D02*
X-109365Y-73896D01*
X-109365Y-76365D02*
X-109365Y-71426D01*
X-102451Y82635D02*
X-100475Y85104D01*
X-109365Y85104D01*
X-109365Y82635D02*
X-109365Y87574D01*
X-106896Y91779D02*
X-106798Y91781D01*
X-106700Y91787D01*
X-106602Y91797D01*
X-106505Y91810D01*
X-106408Y91828D01*
X-106312Y91849D01*
X-106218Y91874D01*
X-106124Y91903D01*
X-106031Y91935D01*
X-105940Y91972D01*
X-105850Y92011D01*
X-105762Y92055D01*
X-105676Y92102D01*
X-105591Y92152D01*
X-105509Y92205D01*
X-105429Y92262D01*
X-105351Y92322D01*
X-105276Y92385D01*
X-105203Y92451D01*
X-105133Y92520D01*
X-105066Y92591D01*
X-105001Y92665D01*
X-104940Y92742D01*
X-104881Y92821D01*
X-104826Y92902D01*
X-104774Y92985D01*
X-104726Y93071D01*
X-104681Y93158D01*
X-104639Y93247D01*
X-104601Y93337D01*
X-104567Y93429D01*
X-104536Y93522D01*
X-104509Y93617D01*
X-104486Y93712D01*
X-104466Y93809D01*
X-104451Y93905D01*
X-104439Y94003D01*
X-104431Y94101D01*
X-104427Y94199D01*
X-104427Y94297D01*
X-104431Y94395D01*
X-104439Y94493D01*
X-104451Y94591D01*
X-104466Y94687D01*
X-104486Y94784D01*
X-104509Y94879D01*
X-104536Y94974D01*
X-104567Y95067D01*
X-104601Y95159D01*
X-104639Y95249D01*
X-104681Y95338D01*
X-104726Y95425D01*
X-104774Y95511D01*
X-104826Y95594D01*
X-104881Y95675D01*
X-104940Y95754D01*
X-105001Y95831D01*
X-105066Y95905D01*
X-105133Y95976D01*
X-105203Y96045D01*
X-105276Y96111D01*
X-105351Y96174D01*
X-105429Y96234D01*
X-105509Y96291D01*
X-105591Y96344D01*
X-105676Y96394D01*
X-105762Y96441D01*
X-105850Y96485D01*
X-105940Y96524D01*
X-106031Y96561D01*
X-106124Y96593D01*
X-106218Y96622D01*
X-106312Y96647D01*
X-106408Y96668D01*
X-106505Y96686D01*
X-106602Y96699D01*
X-106700Y96709D01*
X-106798Y96715D01*
X-106896Y96717D01*
X-106994Y96715D01*
X-107092Y96709D01*
X-107190Y96699D01*
X-107287Y96686D01*
X-107384Y96668D01*
X-107480Y96647D01*
X-107574Y96622D01*
X-107668Y96593D01*
X-107761Y96561D01*
X-107852Y96524D01*
X-107942Y96485D01*
X-108030Y96441D01*
X-108116Y96394D01*
X-108201Y96344D01*
X-108283Y96291D01*
X-108363Y96234D01*
X-108441Y96174D01*
X-108516Y96111D01*
X-108589Y96045D01*
X-108659Y95976D01*
X-108726Y95905D01*
X-108791Y95831D01*
X-108852Y95754D01*
X-108911Y95675D01*
X-108966Y95594D01*
X-109018Y95511D01*
X-109066Y95425D01*
X-109111Y95338D01*
X-109153Y95249D01*
X-109191Y95159D01*
X-109225Y95067D01*
X-109256Y94974D01*
X-109283Y94879D01*
X-109306Y94784D01*
X-109326Y94687D01*
X-109341Y94591D01*
X-109353Y94493D01*
X-109361Y94395D01*
X-109365Y94297D01*
X-109365Y94199D01*
X-109361Y94101D01*
X-109353Y94003D01*
X-109341Y93905D01*
X-109326Y93809D01*
X-109306Y93712D01*
X-109283Y93617D01*
X-109256Y93522D01*
X-109225Y93429D01*
X-109191Y93337D01*
X-109153Y93247D01*
X-109111Y93158D01*
X-109066Y93071D01*
X-109018Y92985D01*
X-108966Y92902D01*
X-108911Y92821D01*
X-108852Y92742D01*
X-108791Y92665D01*
X-108726Y92591D01*
X-108659Y92520D01*
X-108589Y92451D01*
X-108516Y92385D01*
X-108441Y92322D01*
X-108363Y92262D01*
X-108283Y92205D01*
X-108201Y92152D01*
X-108116Y92102D01*
X-108030Y92055D01*
X-107942Y92011D01*
X-107852Y91972D01*
X-107761Y91935D01*
X-107668Y91903D01*
X-107574Y91874D01*
X-107480Y91849D01*
X-107384Y91828D01*
X-107287Y91810D01*
X-107190Y91797D01*
X-107092Y91787D01*
X-106994Y91781D01*
X-106896Y91779D01*
X-102451Y92272D02*
X-102364Y92274D01*
X-102276Y92280D01*
X-102189Y92289D01*
X-102103Y92303D01*
X-102017Y92320D01*
X-101933Y92341D01*
X-101849Y92366D01*
X-101766Y92395D01*
X-101685Y92427D01*
X-101605Y92462D01*
X-101527Y92501D01*
X-101450Y92544D01*
X-101376Y92590D01*
X-101304Y92639D01*
X-101234Y92691D01*
X-101166Y92747D01*
X-101101Y92805D01*
X-101038Y92866D01*
X-100979Y92930D01*
X-100922Y92997D01*
X-100868Y93065D01*
X-100817Y93137D01*
X-100770Y93210D01*
X-100725Y93285D01*
X-100684Y93363D01*
X-100647Y93442D01*
X-100613Y93522D01*
X-100583Y93604D01*
X-100556Y93687D01*
X-100533Y93772D01*
X-100514Y93857D01*
X-100499Y93943D01*
X-100487Y94030D01*
X-100479Y94117D01*
X-100475Y94204D01*
X-100475Y94292D01*
X-100479Y94379D01*
X-100487Y94466D01*
X-100499Y94553D01*
X-100514Y94639D01*
X-100533Y94724D01*
X-100556Y94809D01*
X-100583Y94892D01*
X-100613Y94974D01*
X-100647Y95054D01*
X-100684Y95133D01*
X-100725Y95211D01*
X-100770Y95286D01*
X-100817Y95359D01*
X-100868Y95431D01*
X-100922Y95499D01*
X-100979Y95566D01*
X-101038Y95630D01*
X-101101Y95691D01*
X-101166Y95749D01*
X-101234Y95805D01*
X-101304Y95857D01*
X-101376Y95906D01*
X-101450Y95952D01*
X-101527Y95995D01*
X-101605Y96034D01*
X-101685Y96069D01*
X-101766Y96101D01*
X-101849Y96130D01*
X-101933Y96155D01*
X-102017Y96176D01*
X-102103Y96193D01*
X-102189Y96207D01*
X-102276Y96216D01*
X-102364Y96222D01*
X-102451Y96224D01*
X-102538Y96222D01*
X-102626Y96216D01*
X-102713Y96207D01*
X-102799Y96193D01*
X-102885Y96176D01*
X-102969Y96155D01*
X-103053Y96130D01*
X-103136Y96101D01*
X-103217Y96069D01*
X-103297Y96034D01*
X-103375Y95995D01*
X-103452Y95952D01*
X-103526Y95906D01*
X-103598Y95857D01*
X-103668Y95805D01*
X-103736Y95749D01*
X-103801Y95691D01*
X-103864Y95630D01*
X-103923Y95566D01*
X-103980Y95499D01*
X-104034Y95431D01*
X-104085Y95359D01*
X-104132Y95286D01*
X-104177Y95211D01*
X-104218Y95133D01*
X-104255Y95054D01*
X-104289Y94974D01*
X-104319Y94892D01*
X-104346Y94809D01*
X-104369Y94724D01*
X-104388Y94639D01*
X-104403Y94553D01*
X-104415Y94466D01*
X-104423Y94379D01*
X-104427Y94292D01*
X-104427Y94204D01*
X-104423Y94117D01*
X-104415Y94030D01*
X-104403Y93943D01*
X-104388Y93857D01*
X-104369Y93772D01*
X-104346Y93687D01*
X-104319Y93604D01*
X-104289Y93522D01*
X-104255Y93442D01*
X-104218Y93363D01*
X-104177Y93285D01*
X-104132Y93210D01*
X-104085Y93137D01*
X-104034Y93065D01*
X-103980Y92997D01*
X-103923Y92930D01*
X-103864Y92866D01*
X-103801Y92805D01*
X-103736Y92747D01*
X-103668Y92691D01*
X-103598Y92639D01*
X-103526Y92590D01*
X-103452Y92544D01*
X-103375Y92501D01*
X-103297Y92462D01*
X-103217Y92427D01*
X-103136Y92395D01*
X-103053Y92366D01*
X-102969Y92341D01*
X-102885Y92320D01*
X-102799Y92303D01*
X-102713Y92289D01*
X-102626Y92280D01*
X-102538Y92274D01*
X-102451Y92272D01*
M02*
