G04 EAGLE Gerber RS-274X export*
G75*
%MOMM*%
%FSLAX34Y34*%
%LPD*%
%INSolderpaste Bottom*%
%IPPOS*%
%AMOC8*
5,1,8,0,0,1.08239X$1,22.5*%
G01*
G04 Define Apertures*
%ADD10C,0.255000*%
D10*
X-140525Y-60175D02*
X-113075Y-60175D01*
X-113075Y-62625D01*
X-140525Y-62625D01*
X-140525Y-60175D01*
X-140525Y-60203D02*
X-113075Y-60203D01*
X-113075Y-52175D02*
X-140525Y-52175D01*
X-113075Y-52175D02*
X-113075Y-54625D01*
X-140525Y-54625D01*
X-140525Y-52175D01*
X-140525Y-52203D02*
X-113075Y-52203D01*
X-113075Y-44175D02*
X-140525Y-44175D01*
X-113075Y-44175D02*
X-113075Y-46625D01*
X-140525Y-46625D01*
X-140525Y-44175D01*
X-140525Y-44203D02*
X-113075Y-44203D01*
X-113075Y-36175D02*
X-140525Y-36175D01*
X-113075Y-36175D02*
X-113075Y-38625D01*
X-140525Y-38625D01*
X-140525Y-36175D01*
X-140525Y-36203D02*
X-113075Y-36203D01*
X-113075Y-28175D02*
X-140525Y-28175D01*
X-113075Y-28175D02*
X-113075Y-30625D01*
X-140525Y-30625D01*
X-140525Y-28175D01*
X-140525Y-28203D02*
X-113075Y-28203D01*
X-113075Y-20175D02*
X-140525Y-20175D01*
X-113075Y-20175D02*
X-113075Y-22625D01*
X-140525Y-22625D01*
X-140525Y-20175D01*
X-140525Y-20203D02*
X-113075Y-20203D01*
X-113075Y-12175D02*
X-140525Y-12175D01*
X-113075Y-12175D02*
X-113075Y-14625D01*
X-140525Y-14625D01*
X-140525Y-12175D01*
X-140525Y-12203D02*
X-113075Y-12203D01*
X-113075Y-4175D02*
X-140525Y-4175D01*
X-113075Y-4175D02*
X-113075Y-6625D01*
X-140525Y-6625D01*
X-140525Y-4175D01*
X-140525Y-4203D02*
X-113075Y-4203D01*
X-113075Y3825D02*
X-140525Y3825D01*
X-113075Y3825D02*
X-113075Y1375D01*
X-140525Y1375D01*
X-140525Y3825D01*
X-140525Y3797D02*
X-113075Y3797D01*
X-113075Y11825D02*
X-140525Y11825D01*
X-113075Y11825D02*
X-113075Y9375D01*
X-140525Y9375D01*
X-140525Y11825D01*
X-140525Y11797D02*
X-113075Y11797D01*
X-113075Y19825D02*
X-140525Y19825D01*
X-113075Y19825D02*
X-113075Y17375D01*
X-140525Y17375D01*
X-140525Y19825D01*
X-140525Y19797D02*
X-113075Y19797D01*
X-113075Y27825D02*
X-140525Y27825D01*
X-113075Y27825D02*
X-113075Y25375D01*
X-140525Y25375D01*
X-140525Y27825D01*
X-140525Y27797D02*
X-113075Y27797D01*
X-113075Y35825D02*
X-140525Y35825D01*
X-113075Y35825D02*
X-113075Y33375D01*
X-140525Y33375D01*
X-140525Y35825D01*
X-140525Y35797D02*
X-113075Y35797D01*
X-113075Y43825D02*
X-140525Y43825D01*
X-113075Y43825D02*
X-113075Y41375D01*
X-140525Y41375D01*
X-140525Y43825D01*
X-140525Y43797D02*
X-113075Y43797D01*
X-113075Y51825D02*
X-140525Y51825D01*
X-113075Y51825D02*
X-113075Y49375D01*
X-140525Y49375D01*
X-140525Y51825D01*
X-140525Y51797D02*
X-113075Y51797D01*
X-113075Y59825D02*
X-140525Y59825D01*
X-113075Y59825D02*
X-113075Y57375D01*
X-140525Y57375D01*
X-140525Y59825D01*
X-140525Y59797D02*
X-113075Y59797D01*
X-113075Y67825D02*
X-140525Y67825D01*
X-113075Y67825D02*
X-113075Y65375D01*
X-140525Y65375D01*
X-140525Y67825D01*
X-140525Y67797D02*
X-113075Y67797D01*
X-113075Y75825D02*
X-140525Y75825D01*
X-113075Y75825D02*
X-113075Y73375D01*
X-140525Y73375D01*
X-140525Y75825D01*
X-140525Y75797D02*
X-113075Y75797D01*
M02*
